####
#
#	OBJ File Generated by LightWave3D
#	LightWave3D OBJ Export v2.3
#
####
o cube_frame.obj
g default
v -0.5 -0.5 0.5
v 0.5 -0.5 0.5
v 0.5 -0.5 0.49
v -0.5 -0.5 0.49
v -0.5 -0.49 0.5
v 0.5 -0.49 0.5
v 0.5 -0.49 0.49
v -0.5 -0.49 0.49
v -0.5 -0.5 -0.49
v 0.5 -0.5 -0.49
v 0.5 -0.5 -0.5
v -0.5 -0.5 -0.5
v -0.5 -0.49 -0.49
v 0.5 -0.49 -0.49
v 0.5 -0.49 -0.5
v -0.5 -0.49 -0.5
v -0.5 0.49 0.5
v 0.5 0.49 0.5
v 0.5 0.49 0.49
v -0.5 0.49 0.49
v -0.5 0.5 0.5
v 0.5 0.5 0.5
v 0.5 0.5 0.49
v -0.5 0.5 0.49
v -0.5 0.49 -0.49
v 0.5 0.49 -0.49
v 0.5 0.49 -0.5
v -0.5 0.49 -0.5
v -0.5 0.5 -0.49
v 0.5 0.5 -0.49
v 0.5 0.5 -0.5
v -0.5 0.5 -0.5
v -0.5 -0.5 -0.5
v -0.5 -0.5 0.5
v -0.49 -0.5 0.5
v -0.49 -0.5 -0.5
v -0.5 -0.49 -0.5
v -0.5 -0.49 0.5
v -0.49 -0.49 0.5
v -0.49 -0.49 -0.5
v 0.49 -0.5 -0.5
v 0.49 -0.5 0.5
v 0.5 -0.5 0.5
v 0.5 -0.5 -0.5
v 0.49 -0.49 -0.5
v 0.49 -0.49 0.5
v 0.5 -0.49 0.5
v 0.5 -0.49 -0.5
v -0.5 0.49 -0.5
v -0.5 0.49 0.5
v -0.49 0.49 0.5
v -0.49 0.49 -0.5
v -0.5 0.5 -0.5
v -0.5 0.5 0.5
v -0.49 0.5 0.5
v -0.49 0.5 -0.5
v 0.49 0.49 -0.5
v 0.49 0.49 0.5
v 0.5 0.49 0.5
v 0.5 0.49 -0.5
v 0.49 0.5 -0.5
v 0.49 0.5 0.5
v 0.5 0.5 0.5
v 0.5 0.5 -0.5
v -0.5 0.5 -0.5
v -0.5 -0.5 -0.5
v -0.49 -0.5 -0.5
v -0.49 0.5 -0.5
v -0.5 0.5 -0.49
v -0.5 -0.5 -0.49
v -0.49 -0.5 -0.49
v -0.49 0.5 -0.49
v 0.49 0.5 -0.5
v 0.49 -0.5 -0.5
v 0.5 -0.5 -0.5
v 0.5 0.5 -0.5
v 0.49 0.5 -0.49
v 0.49 -0.5 -0.49
v 0.5 -0.5 -0.49
v 0.5 0.5 -0.49
v -0.5 0.5 0.49
v -0.5 -0.5 0.49
v -0.49 -0.5 0.49
v -0.49 0.5 0.49
v -0.5 0.5 0.5
v -0.5 -0.5 0.5
v -0.49 -0.5 0.5
v -0.49 0.5 0.5
v 0.49 0.5 0.49
v 0.49 -0.5 0.49
v 0.5 -0.5 0.49
v 0.5 0.5 0.49
v 0.49 0.5 0.5
v 0.49 -0.5 0.5
v 0.5 -0.5 0.5
v 0.5 0.5 0.5
vn 0 -1 -0
vn 0 -1 -0
vn 0 -1 -0
vn 0 -1 -0
vn 0 0 1
vn 0 0 1
vn 0 0 1
vn 0 0 1
vn 1 0 -0
vn 1 0 -0
vn 1 0 -0
vn 1 0 -0
vn 0 0 -1
vn 0 0 -1
vn 0 0 -1
vn 0 0 -1
vn -1 0 -0
vn -1 0 -0
vn -1 0 -0
vn -1 0 -0
vn 0 1 -0
vn 0 1 -0
vn 0 1 -0
vn 0 1 -0
vn 0 -1 -0
vn 0 -1 -0
vn 0 -1 -0
vn 0 -1 -0
vn 0 0 1
vn 0 0 1
vn 0 0 1
vn 0 0 1
vn 1 0 -0
vn 1 0 -0
vn 1 0 -0
vn 1 0 -0
vn 0 0 -1
vn 0 0 -1
vn 0 0 -1
vn 0 0 -1
vn -1 0 -0
vn -1 0 -0
vn -1 0 -0
vn -1 0 -0
vn 0 1 -0
vn 0 1 -0
vn 0 1 -0
vn 0 1 -0
vn 0 -1 -0
vn 0 -1 -0
vn 0 -1 -0
vn 0 -1 -0
vn 0 0 1
vn 0 0 1
vn 0 0 1
vn 0 0 1
vn 1 0 -0
vn 1 0 -0
vn 1 0 -0
vn 1 0 -0
vn 0 0 -1
vn 0 0 -1
vn 0 0 -1
vn 0 0 -1
vn -1 0 -0
vn -1 0 -0
vn -1 0 -0
vn -1 0 -0
vn 0 1 -0
vn 0 1 -0
vn 0 1 -0
vn 0 1 -0
vn 0 -1 -0
vn 0 -1 -0
vn 0 -1 -0
vn 0 -1 -0
vn 0 0 1
vn 0 0 1
vn 0 0 1
vn 0 0 1
vn 1 0 -0
vn 1 0 -0
vn 1 0 -0
vn 1 0 -0
vn 0 0 -1
vn 0 0 -1
vn 0 0 -1
vn 0 0 -1
vn -1 0 -0
vn -1 0 -0
vn -1 0 -0
vn -1 0 -0
vn 0 1 -0
vn 0 1 -0
vn 0 1 -0
vn 0 1 -0
vn 0 -1 -0
vn 0 -1 -0
vn 0 -1 -0
vn 0 -1 -0
vn -1 0 -0
vn -1 0 -0
vn -1 0 -0
vn -1 0 -0
vn 0 0 1
vn 0 0 1
vn 0 0 1
vn 0 0 1
vn 1 -0 -0
vn 1 -0 -0
vn 1 -0 -0
vn 1 -0 -0
vn 0 0 -1
vn 0 0 -1
vn 0 0 -1
vn 0 0 -1
vn -0 1 -0
vn -0 1 -0
vn -0 1 -0
vn -0 1 -0
vn 0 -1 -0
vn 0 -1 -0
vn 0 -1 -0
vn 0 -1 -0
vn -1 0 -0
vn -1 0 -0
vn -1 0 -0
vn -1 0 -0
vn 0 0 1
vn 0 0 1
vn 0 0 1
vn 0 0 1
vn 1 -0 -0
vn 1 -0 -0
vn 1 -0 -0
vn 1 -0 -0
vn 0 0 -1
vn 0 0 -1
vn 0 0 -1
vn 0 0 -1
vn -0 1 -0
vn -0 1 -0
vn -0 1 -0
vn -0 1 -0
vn 0 -1 -0
vn 0 -1 -0
vn 0 -1 -0
vn 0 -1 -0
vn -1 0 -0
vn -1 0 -0
vn -1 0 -0
vn -1 0 -0
vn 0 0 1
vn 0 0 1
vn 0 0 1
vn 0 0 1
vn 1 -0 -0
vn 1 -0 -0
vn 1 -0 -0
vn 1 -0 -0
vn 0 0 -1
vn 0 0 -1
vn 0 0 -1
vn 0 0 -1
vn -0 1 -0
vn -0 1 -0
vn -0 1 -0
vn -0 1 -0
vn 0 -1 -0
vn 0 -1 -0
vn 0 -1 -0
vn 0 -1 -0
vn -1 0 -0
vn -1 0 -0
vn -1 0 -0
vn -1 0 -0
vn 0 0 1
vn 0 0 1
vn 0 0 1
vn 0 0 1
vn 1 -0 -0
vn 1 -0 -0
vn 1 -0 -0
vn 1 -0 -0
vn 0 0 -1
vn 0 0 -1
vn 0 0 -1
vn 0 0 -1
vn -0 1 -0
vn -0 1 -0
vn -0 1 -0
vn -0 1 -0
vn -0 0 -1
vn -0 0 -1
vn -0 0 -1
vn -0 0 -1
vn -1 -0 0
vn -1 -0 0
vn -1 -0 0
vn -1 -0 0
vn 0 -1 -0
vn 0 -1 -0
vn 0 -1 -0
vn 0 -1 -0
vn 1 0 -0
vn 1 0 -0
vn 1 0 -0
vn 1 0 -0
vn -0 1 -0
vn -0 1 -0
vn -0 1 -0
vn -0 1 -0
vn 0 0 1
vn 0 0 1
vn 0 0 1
vn 0 0 1
vn -0 0 -1
vn -0 0 -1
vn -0 0 -1
vn -0 0 -1
vn -1 -0 0
vn -1 -0 0
vn -1 -0 0
vn -1 -0 0
vn 0 -1 -0
vn 0 -1 -0
vn 0 -1 -0
vn 0 -1 -0
vn 1 0 -0
vn 1 0 -0
vn 1 0 -0
vn 1 0 -0
vn -0 1 -0
vn -0 1 -0
vn -0 1 -0
vn -0 1 -0
vn 0 0 1
vn 0 0 1
vn 0 0 1
vn 0 0 1
vn -0 0 -1
vn -0 0 -1
vn -0 0 -1
vn -0 0 -1
vn -1 -0 0
vn -1 -0 0
vn -1 -0 0
vn -1 -0 0
vn 0 -1 -0
vn 0 -1 -0
vn 0 -1 -0
vn 0 -1 -0
vn 1 0 -0
vn 1 0 -0
vn 1 0 -0
vn 1 0 -0
vn -0 1 -0
vn -0 1 -0
vn -0 1 -0
vn -0 1 -0
vn 0 0 1
vn 0 0 1
vn 0 0 1
vn 0 0 1
vn -0 0 -1
vn -0 0 -1
vn -0 0 -1
vn -0 0 -1
vn -1 -0 0
vn -1 -0 0
vn -1 -0 0
vn -1 -0 0
vn 0 -1 -0
vn 0 -1 -0
vn 0 -1 -0
vn 0 -1 -0
vn 1 0 -0
vn 1 0 -0
vn 1 0 -0
vn 1 0 -0
vn -0 1 -0
vn -0 1 -0
vn -0 1 -0
vn -0 1 -0
vn 0 0 1
vn 0 0 1
vn 0 0 1
vn 0 0 1
g Default
usemtl Default
s off
f 4//1 3//2 2//3 1//4
f 2//5 6//6 5//7 1//8
f 3//9 7//10 6//11 2//12
f 8//13 7//14 3//15 4//16
f 5//17 8//18 4//19 1//20
f 6//21 7//22 8//23 5//24
f 12//25 11//26 10//27 9//28
f 10//29 14//30 13//31 9//32
f 11//33 15//34 14//35 10//36
f 16//37 15//38 11//39 12//40
f 13//41 16//42 12//43 9//44
f 14//45 15//46 16//47 13//48
f 20//49 19//50 18//51 17//52
f 18//53 22//54 21//55 17//56
f 19//57 23//58 22//59 18//60
f 24//61 23//62 19//63 20//64
f 21//65 24//66 20//67 17//68
f 22//69 23//70 24//71 21//72
f 28//73 27//74 26//75 25//76
f 26//77 30//78 29//79 25//80
f 27//81 31//82 30//83 26//84
f 32//85 31//86 27//87 28//88
f 29//89 32//90 28//91 25//92
f 30//93 31//94 32//95 29//96
f 36//97 35//98 34//99 33//100
f 34//101 38//102 37//103 33//104
f 35//105 39//106 38//107 34//108
f 40//109 39//110 35//111 36//112
f 37//113 40//114 36//115 33//116
f 38//117 39//118 40//119 37//120
f 44//121 43//122 42//123 41//124
f 42//125 46//126 45//127 41//128
f 43//129 47//130 46//131 42//132
f 48//133 47//134 43//135 44//136
f 45//137 48//138 44//139 41//140
f 46//141 47//142 48//143 45//144
f 52//145 51//146 50//147 49//148
f 50//149 54//150 53//151 49//152
f 51//153 55//154 54//155 50//156
f 56//157 55//158 51//159 52//160
f 53//161 56//162 52//163 49//164
f 54//165 55//166 56//167 53//168
f 60//169 59//170 58//171 57//172
f 58//173 62//174 61//175 57//176
f 59//177 63//178 62//179 58//180
f 64//181 63//182 59//183 60//184
f 61//185 64//186 60//187 57//188
f 62//189 63//190 64//191 61//192
f 68//193 67//194 66//195 65//196
f 66//197 70//198 69//199 65//200
f 67//201 71//202 70//203 66//204
f 72//205 71//206 67//207 68//208
f 69//209 72//210 68//211 65//212
f 70//213 71//214 72//215 69//216
f 76//217 75//218 74//219 73//220
f 74//221 78//222 77//223 73//224
f 75//225 79//226 78//227 74//228
f 80//229 79//230 75//231 76//232
f 77//233 80//234 76//235 73//236
f 78//237 79//238 80//239 77//240
f 84//241 83//242 82//243 81//244
f 82//245 86//246 85//247 81//248
f 83//249 87//250 86//251 82//252
f 88//253 87//254 83//255 84//256
f 85//257 88//258 84//259 81//260
f 86//261 87//262 88//263 85//264
f 92//265 91//266 90//267 89//268
f 90//269 94//270 93//271 89//272
f 91//273 95//274 94//275 90//276
f 96//277 95//278 91//279 92//280
f 93//281 96//282 92//283 89//284
f 94//285 95//286 96//287 93//288
