# File produced by Open Asset Import Library (http://www.assimp.sf.net)
# (assimp v3.0.1262)

# 24 vertex positions
v  0 -0.5 1000
v  -17.4524 -0.5 999.848
v  0 -0.5 0
v  0 -0.5 0
v  0 0.5 0
v  0 0.5 1000
v  0 0.5 1000
v  0 -0.5 1000
v  0 -0.5 0
v  -17.4524 -0.5 999.848
v  -17.4524 0.5 999.848
v  0 0.5 0
v  0 0.5 0
v  0 -0.5 0
v  -17.4524 -0.5 999.848
v  -17.4524 0.5 999.848
v  -17.4524 -0.5 999.848
v  0 -0.5 1000
v  0 -0.5 1000
v  0 0.5 1000
v  -17.4524 0.5 999.848
v  0 0.5 0
v  -17.4524 0.5 999.848
v  0 0.5 1000

# 0 UV coordinates

# 24 vertex normals
vn 0 -1 0
vn 0 -1 0
vn 0 -1 0
vn 1 0 0
vn 1 0 0
vn 1 0 0
vn 1 0 0
vn 1 0 0
vn 1 0 0
vn -0.999848 0 -0.0174524
vn -0.999848 0 -0.0174524
vn -0.999848 0 -0.0174524
vn -0.999848 0 -0.0174524
vn -0.999848 0 -0.0174524
vn -0.999848 0 -0.0174524
vn -0.00872654 0 0.999962
vn -0.00872654 0 0.999962
vn -0.00872654 0 0.999962
vn -0.00872654 0 0.999962
vn -0.00872654 0 0.999962
vn -0.00872654 0 0.999962
vn 0 1 0
vn 0 1 0
vn 0 1 0

# Mesh '<STL_BINARY>' with 8 faces
g <STL_BINARY>
usemtl DefaultMaterial
f  1//1 2//2 3//3
f  4//4 5//5 6//6
f  7//7 8//8 9//9
f  10//10 11//11 12//12
f  13//13 14//14 15//15
f  16//16 17//17 18//18
f  19//19 20//20 21//21
f  22//22 23//23 24//24

